<svg xmlns="http://www.w3.org/2000/svg" xmlns:xlink="http://www.w3.org/1999/xlink" width="100" zoomAndPan="magnify" viewBox="0 0 75 74.999997" height="100" preserveAspectRatio="xMidYMid meet" version="1.0"><defs><clipPath id="4959f373c5"><path d="M 14.207031 14.207031 L 60.707031 14.207031 L 60.707031 60.707031 L 14.207031 60.707031 Z M 14.207031 14.207031 " clip-rule="nonzero"/></clipPath></defs><rect x="-7.5" width="90" fill="#ffffff" y="-7.5" height="89.999996" fill-opacity="1"/><rect x="-7.5" width="90" fill="#ffffff" y="-7.5" height="89.999996" fill-opacity="1"/><rect x="-7.5" width="90" fill="#ffffff" y="-7.5" height="89.999996" fill-opacity="1"/><g clip-path="url(#4959f373c5)"><path fill="#000000" d="M 37.457031 14.207031 C 36.695312 14.207031 35.9375 14.242188 35.179688 14.320312 C 34.421875 14.394531 33.667969 14.503906 32.921875 14.652344 C 32.175781 14.800781 31.4375 14.988281 30.707031 15.207031 C 29.980469 15.429688 29.261719 15.683594 28.558594 15.976562 C 27.855469 16.269531 27.167969 16.59375 26.496094 16.953125 C 25.824219 17.3125 25.171875 17.703125 24.539062 18.125 C 23.90625 18.546875 23.296875 19 22.707031 19.484375 C 22.117188 19.96875 21.554688 20.476562 21.015625 21.015625 C 20.476562 21.554688 19.96875 22.117188 19.484375 22.707031 C 19 23.296875 18.546875 23.90625 18.125 24.539062 C 17.703125 25.171875 17.3125 25.824219 16.953125 26.496094 C 16.59375 27.167969 16.269531 27.855469 15.976562 28.558594 C 15.683594 29.261719 15.429688 29.980469 15.207031 30.707031 C 14.988281 31.4375 14.800781 32.175781 14.652344 32.921875 C 14.503906 33.667969 14.394531 34.421875 14.320312 35.179688 C 14.242188 35.9375 14.207031 36.695312 14.207031 37.457031 C 14.207031 38.21875 14.242188 38.976562 14.320312 39.734375 C 14.394531 40.492188 14.503906 41.246094 14.652344 41.992188 C 14.800781 42.738281 14.988281 43.476562 15.207031 44.207031 C 15.429688 44.933594 15.683594 45.652344 15.976562 46.355469 C 16.269531 47.058594 16.59375 47.746094 16.953125 48.417969 C 17.3125 49.089844 17.703125 49.742188 18.125 50.375 C 18.546875 51.007812 19 51.617188 19.484375 52.207031 C 19.96875 52.796875 20.476562 53.359375 21.015625 53.898438 C 21.554688 54.433594 22.117188 54.945312 22.707031 55.429688 C 23.296875 55.914062 23.90625 56.367188 24.539062 56.789062 C 25.171875 57.210938 25.824219 57.601562 26.496094 57.960938 C 27.167969 58.320312 27.855469 58.644531 28.558594 58.9375 C 29.261719 59.226562 29.980469 59.484375 30.707031 59.707031 C 31.4375 59.925781 32.175781 60.113281 32.921875 60.261719 C 33.667969 60.410156 34.421875 60.519531 35.179688 60.59375 C 35.9375 60.667969 36.695312 60.707031 37.457031 60.707031 C 38.21875 60.707031 38.976562 60.667969 39.734375 60.59375 C 40.492188 60.519531 41.246094 60.410156 41.992188 60.261719 C 42.738281 60.113281 43.476562 59.925781 44.207031 59.707031 C 44.933594 59.484375 45.652344 59.226562 46.355469 58.9375 C 47.058594 58.644531 47.746094 58.320312 48.417969 57.960938 C 49.089844 57.601562 49.742188 57.210938 50.375 56.789062 C 51.007812 56.367188 51.617188 55.914062 52.207031 55.429688 C 52.796875 54.945312 53.359375 54.433594 53.898438 53.898438 C 54.433594 53.359375 54.945312 52.796875 55.429688 52.207031 C 55.914062 51.617188 56.367188 51.007812 56.789062 50.375 C 57.210938 49.742188 57.601562 49.089844 57.960938 48.417969 C 58.320312 47.746094 58.644531 47.058594 58.9375 46.355469 C 59.226562 45.652344 59.484375 44.933594 59.707031 44.207031 C 59.925781 43.476562 60.113281 42.738281 60.261719 41.992188 C 60.410156 41.246094 60.519531 40.492188 60.59375 39.734375 C 60.667969 38.976562 60.707031 38.21875 60.707031 37.457031 C 60.707031 36.695312 60.667969 35.9375 60.59375 35.179688 C 60.519531 34.421875 60.40625 33.667969 60.257812 32.921875 C 60.109375 32.175781 59.925781 31.4375 59.703125 30.707031 C 59.484375 29.980469 59.226562 29.261719 58.9375 28.558594 C 58.644531 27.855469 58.320312 27.167969 57.960938 26.496094 C 57.601562 25.824219 57.210938 25.171875 56.789062 24.539062 C 56.363281 23.90625 55.910156 23.296875 55.429688 22.707031 C 54.945312 22.121094 54.433594 21.554688 53.894531 21.015625 C 53.359375 20.480469 52.792969 19.96875 52.207031 19.484375 C 51.617188 19.003906 51.007812 18.550781 50.371094 18.125 C 49.738281 17.703125 49.085938 17.3125 48.417969 16.953125 C 47.746094 16.59375 47.058594 16.269531 46.355469 15.976562 C 45.648438 15.6875 44.933594 15.429688 44.207031 15.207031 C 43.476562 14.988281 42.738281 14.800781 41.992188 14.652344 C 41.246094 14.503906 40.492188 14.394531 39.734375 14.320312 C 38.976562 14.246094 38.21875 14.207031 37.457031 14.207031 Z M 45.550781 37.136719 C 44.707031 37.140625 43.988281 36.84375 43.394531 36.242188 L 40.515625 33.375 L 40.515625 48.929688 C 40.515625 49.335938 40.4375 49.726562 40.28125 50.101562 C 40.128906 50.472656 39.90625 50.804688 39.621094 51.09375 C 39.332031 51.378906 39.003906 51.601562 38.628906 51.753906 C 38.253906 51.910156 37.863281 51.988281 37.457031 51.988281 C 37.050781 51.988281 36.660156 51.910156 36.285156 51.753906 C 35.910156 51.601562 35.582031 51.378906 35.292969 51.09375 C 35.007812 50.804688 34.785156 50.472656 34.628906 50.101562 C 34.476562 49.726562 34.398438 49.335938 34.398438 48.929688 L 34.398438 33.375 L 31.519531 36.242188 C 30.925781 36.84375 30.207031 37.140625 29.363281 37.136719 C 28.746094 37.132812 28.183594 36.957031 27.675781 36.613281 C 27.164062 36.269531 26.792969 35.8125 26.554688 35.246094 C 26.320312 34.675781 26.261719 34.089844 26.378906 33.484375 C 26.492188 32.882812 26.765625 32.359375 27.199219 31.921875 L 35.292969 23.828125 C 35.578125 23.539062 35.910156 23.316406 36.285156 23.160156 C 36.660156 23.003906 37.050781 22.925781 37.457031 22.925781 C 37.863281 22.925781 38.253906 23.003906 38.628906 23.160156 C 39.003906 23.316406 39.335938 23.539062 39.621094 23.828125 L 47.714844 31.921875 C 48.144531 32.359375 48.417969 32.882812 48.535156 33.484375 C 48.652344 34.089844 48.59375 34.675781 48.355469 35.246094 C 48.121094 35.8125 47.75 36.269531 47.238281 36.613281 C 46.726562 36.957031 46.164062 37.132812 45.550781 37.136719 Z M 45.550781 37.136719 " fill-opacity="1" fill-rule="nonzero"/></g></svg>