<svg xmlns="http://www.w3.org/2000/svg" xmlns:xlink="http://www.w3.org/1999/xlink" width="200" zoomAndPan="magnify" viewBox="0 0 150 74.999997" height="100" preserveAspectRatio="xMidYMid meet" version="1.0"><defs><g/><clipPath id="1943027f8d"><path d="M 103.503906 27.335938 L 121.503906 27.335938 L 121.503906 45.335938 L 103.503906 45.335938 Z M 103.503906 27.335938 " clip-rule="nonzero"/></clipPath></defs><g clip-path="url(#1943027f8d)"><path fill="#6141ac" d="M 112.503906 45.335938 C 107.542969 45.335938 103.503906 41.296875 103.503906 36.332031 C 103.503906 31.367188 107.542969 27.335938 112.503906 27.335938 C 117.460938 27.335938 121.5 31.375 121.5 36.332031 C 121.503906 41.296875 117.464844 45.335938 112.503906 45.335938 Z M 112.503906 27.488281 C 107.625 27.488281 103.65625 31.453125 103.65625 36.332031 C 103.65625 41.210938 107.628906 45.183594 112.503906 45.183594 C 117.375 45.183594 121.351562 41.210938 121.351562 36.332031 C 121.351562 31.453125 117.382812 27.488281 112.503906 27.488281 Z M 112.503906 27.488281 " fill-opacity="1" fill-rule="nonzero"/></g><g fill="#6141ac" fill-opacity="1"><g transform="translate(7.581829, 51.563221)"><g><path d="M 25.65625 -15.203125 C 25.085938 -9.804688 22.804688 -4.144531 18.890625 -0.265625 C 18.394531 0.226562 17.789062 0.53125 17.21875 0.988281 C 17.21875 0.988281 17.21875 1.027344 17.179688 1.0625 C 17.179688 1.027344 17.179688 0.988281 17.179688 0.914062 C 17.179688 0.683594 17.179688 0.457031 17.21875 0.226562 C 17.292969 -1.027344 17.445312 -2.320312 17.597656 -3.574219 C 17.902344 -6.234375 18.320312 -8.894531 19.117188 -11.480469 C 19.421875 -12.046875 18.472656 -13.113281 17.75 -13.1875 C 17.484375 -13.265625 17.257812 -13.1875 17.140625 -12.921875 C 15.316406 -9.503906 13.226562 -6.234375 10.945312 -3.15625 C 9.804688 -1.632812 8.628906 -0.152344 7.375 1.292969 C 6.839844 1.902344 6.269531 2.585938 5.664062 3.15625 C 5.96875 2.015625 6.386719 0.875 6.839844 -0.226562 C 7.679688 -2.28125 8.515625 -4.332031 9.351562 -6.386719 C 10.222656 -8.476562 11.0625 -10.566406 11.933594 -12.617188 C 12.390625 -13.722656 12.847656 -14.824219 13.265625 -15.964844 C 13.605469 -16.722656 13.949219 -17.484375 13.875 -18.359375 C 13.722656 -19.726562 12.46875 -21.132812 11.023438 -21.019531 C 9.464844 -20.90625 7.679688 -19.460938 6.460938 -18.546875 C 3.726562 -16.457031 0.722656 -13.265625 1.140625 -9.539062 C 1.179688 -8.96875 1.632812 -8.398438 2.167969 -8.171875 C 2.507812 -7.980469 3.230469 -7.90625 3.15625 -8.515625 C 2.773438 -11.78125 5.433594 -14.519531 7.792969 -16.417969 C 8.363281 -16.914062 9.007812 -17.332031 9.617188 -17.75 C 10.300781 -18.167969 11.136719 -18.433594 11.746094 -18.890625 C 11.78125 -18.890625 11.820312 -18.890625 11.859375 -18.890625 C 11.820312 -18.851562 11.820312 -18.8125 11.820312 -18.777344 C 11.78125 -18.433594 11.628906 -18.128906 11.480469 -17.789062 C 11.136719 -16.914062 10.757812 -16 10.375 -15.089844 C 9.007812 -11.707031 7.601562 -8.324219 6.195312 -4.941406 C 4.902344 -1.75 3.34375 1.445312 3.230469 4.902344 C 3.191406 5.625 4.21875 6.613281 4.941406 6.386719 C 6.613281 5.929688 7.753906 4.597656 8.894531 3.34375 C 10.222656 1.824219 11.480469 0.226562 12.695312 -1.40625 C 13.757812 -2.8125 14.746094 -4.257812 15.699219 -5.738281 C 15.582031 -4.863281 15.507812 -3.992188 15.394531 -3.15625 C 15.28125 -1.785156 14.9375 -0.265625 15.394531 1.0625 C 15.8125 2.203125 16.988281 3.34375 18.320312 3.078125 C 19.800781 2.738281 21.058594 1.140625 21.96875 0 C 22.996094 -1.332031 23.945312 -2.773438 24.707031 -4.257812 C 26.339844 -7.375 27.289062 -10.71875 27.671875 -14.175781 C 27.785156 -15.011719 25.808594 -16.417969 25.65625 -15.203125 Z M 25.65625 -15.203125 "/></g></g></g><g fill="#6141ac" fill-opacity="1"><g transform="translate(36.388253, 51.563221)"><g><path d="M 7.03125 -4.980469 C 5.703125 -7.183594 3.875 -6.804688 2.128906 -5.472656 C 1.863281 -6.308594 0.492188 -7.222656 0.191406 -6.421875 C -0.644531 -4.179688 -1.558594 -1.976562 -2.394531 0.265625 C -2.699219 1.101562 -0.875 2.699219 -0.417969 1.710938 C 0.226562 0.304688 1.101562 -0.988281 2.167969 -2.089844 C 2.621094 -2.621094 3.15625 -3.117188 3.726562 -3.535156 C 3.992188 -3.726562 5.09375 -4.5625 5.585938 -4.5625 C 5.890625 -4.257812 6.269531 -3.953125 6.652344 -3.992188 C 7.222656 -4.027344 7.296875 -4.5625 7.03125 -4.980469 Z M 7.03125 -4.980469 "/></g></g></g><g fill="#6141ac" fill-opacity="1"><g transform="translate(45.623031, 51.563221)"><g><path d="M 4.445312 -4.980469 C 4.410156 -5.132812 4.371094 -5.246094 4.332031 -5.398438 C 4.863281 -6.003906 3.457031 -7.601562 2.699219 -7.222656 C 0.304688 -6.003906 -3.992188 -1.824219 -1.40625 1.0625 C -0.0390625 2.585938 1.75 1.9375 2.886719 0.492188 C 4.105469 -1.0625 4.636719 -3.003906 4.445312 -4.980469 Z M 1.824219 -2.433594 C 1.558594 -1.863281 1.214844 -1.332031 0.761719 -0.875 C 0.492188 -0.570312 0.226562 -0.457031 -0.0742188 -0.191406 C -0.0390625 -0.378906 0 -0.609375 0.0390625 -0.683594 C 0.113281 -0.949219 0.226562 -1.179688 0.34375 -1.445312 C 0.609375 -1.976562 0.949219 -2.507812 1.332031 -2.964844 C 1.632812 -3.382812 1.976562 -3.726562 2.355469 -4.066406 C 2.242188 -3.496094 2.089844 -2.964844 1.824219 -2.433594 Z M 1.824219 -2.433594 "/></g></g></g><g fill="#6141ac" fill-opacity="1"><g transform="translate(52.653623, 51.563221)"><g><path d="M 4.445312 -4.980469 C 4.410156 -5.132812 4.371094 -5.246094 4.332031 -5.398438 C 4.863281 -6.003906 3.457031 -7.601562 2.699219 -7.222656 C 0.304688 -6.003906 -3.992188 -1.824219 -1.40625 1.0625 C -0.0390625 2.585938 1.75 1.9375 2.886719 0.492188 C 4.105469 -1.0625 4.636719 -3.003906 4.445312 -4.980469 Z M 1.824219 -2.433594 C 1.558594 -1.863281 1.214844 -1.332031 0.761719 -0.875 C 0.492188 -0.570312 0.226562 -0.457031 -0.0742188 -0.191406 C -0.0390625 -0.378906 0 -0.609375 0.0390625 -0.683594 C 0.113281 -0.949219 0.226562 -1.179688 0.34375 -1.445312 C 0.609375 -1.976562 0.949219 -2.507812 1.332031 -2.964844 C 1.632812 -3.382812 1.976562 -3.726562 2.355469 -4.066406 C 2.242188 -3.496094 2.089844 -2.964844 1.824219 -2.433594 Z M 1.824219 -2.433594 "/></g></g></g><g fill="#6141ac" fill-opacity="1"><g transform="translate(59.684215, 51.563221)"><g><path d="M 21.324219 -4.714844 C 19.347656 -3.117188 15.164062 -1.101562 14.140625 -0.835938 C 14.175781 -1.027344 14.175781 -1.214844 14.140625 -1.367188 C 14.0625 -2.242188 13.417969 -3.078125 12.617188 -3.421875 C 11.820312 -3.800781 11.023438 -3.574219 10.300781 -3.117188 C 9.996094 -2.964844 9.730469 -2.773438 9.464844 -2.621094 C 9.652344 -3.230469 9.84375 -3.875 9.769531 -4.484375 C 9.578125 -5.96875 8.171875 -6.691406 6.917969 -6.121094 C 4.902344 -5.207031 3.003906 -4.027344 1.292969 -2.660156 C 1.445312 -3.039062 1.597656 -3.382812 1.785156 -3.726562 C 2.203125 -4.523438 0.34375 -6.121094 -0.191406 -5.167969 C -1.101562 -3.421875 -1.671875 -1.558594 -1.9375 0.417969 C -2.015625 1.0625 -0.644531 2.433594 -0.0390625 1.824219 C 1.253906 0.53125 2.621094 -0.683594 4.144531 -1.710938 C 4.941406 -2.28125 5.738281 -2.773438 6.613281 -3.269531 C 6.878906 -3.382812 7.144531 -3.609375 7.488281 -3.800781 C 7.410156 -3.496094 7.296875 -3.269531 7.257812 -3.039062 C 7.070312 -2.203125 6.878906 -1.332031 6.691406 -0.492188 C 6.5 0.304688 7.753906 1.671875 8.550781 1.101562 C 9.273438 0.609375 9.957031 0.0742188 10.679688 -0.417969 C 11.023438 -0.644531 11.363281 -0.949219 11.746094 -1.179688 C 11.78125 -1.214844 11.898438 -1.253906 11.972656 -1.292969 C 11.972656 -1.253906 11.972656 -1.253906 11.972656 -1.214844 C 11.898438 -0.835938 11.820312 -0.417969 11.933594 0 C 12.199219 0.914062 13.113281 1.597656 14.0625 1.558594 C 14.976562 1.519531 15.886719 0.988281 16.648438 0.570312 C 18.699219 -0.609375 20.601562 -2.089844 22.425781 -3.574219 C 23.148438 -4.144531 22.082031 -5.320312 21.324219 -4.714844 Z M 21.324219 -4.714844 "/></g></g></g><g fill="#6141ac" fill-opacity="1"><g transform="translate(81.080015, 51.563221)"><g><path d="M 9.84375 -4.75 C 7.601562 -3.003906 2.128906 -0.304688 -0.152344 0 C -0.0742188 -0.304688 0.0390625 -0.609375 0.152344 -0.875 C 1.519531 -1.519531 6.613281 -3.496094 4.445312 -5.738281 C 2.964844 -7.296875 0.949219 -5.890625 -0.191406 -4.675781 C -1.445312 -3.308594 -3.191406 -0.609375 -1.824219 1.214844 C -0.949219 2.433594 0.34375 2.320312 1.597656 1.902344 C 5.015625 0.683594 8.171875 -1.597656 11.175781 -3.535156 C 11.898438 -4.027344 10.640625 -5.359375 9.84375 -4.75 Z M 9.84375 -4.75 "/></g></g></g><g fill="#6141ac" fill-opacity="1"><g transform="translate(91.150861, 51.563221)"><g><path d="M 15.164062 -4.902344 C 12.582031 -3.6875 9.691406 -2.46875 7.070312 -1.179688 C 7.601562 -2.28125 8.171875 -3.382812 8.816406 -4.445312 C 9.3125 -5.246094 8.058594 -6.574219 7.222656 -6.308594 C 5.246094 -5.703125 3.382812 -4.75 1.671875 -3.609375 C 1.671875 -3.648438 1.710938 -3.6875 1.75 -3.726562 C 2.167969 -4.484375 0.304688 -6.121094 -0.226562 -5.167969 C -1.214844 -3.421875 -2.128906 -1.558594 -2.621094 0.378906 C -2.8125 1.0625 -1.40625 2.738281 -0.761719 1.976562 C 0.835938 0.0390625 2.773438 -1.558594 4.941406 -2.738281 C 4.5625 -2.015625 4.257812 -1.253906 4.144531 -0.492188 C 3.953125 0.796875 5.167969 2.050781 6.5 1.75 C 7.828125 1.445312 9.121094 0.417969 10.261719 -0.265625 C 12.085938 -1.445312 13.949219 -2.585938 15.925781 -3.496094 C 16.875 -3.953125 16 -5.285156 15.164062 -4.902344 Z M 15.164062 -4.902344 "/></g></g></g><g fill="#033d68" fill-opacity="1"><g transform="translate(96.082719, 30.815679)"><g><path d="M -0.828125 -3.375 L 0.796875 -1.4375 L 0.6875 -1.234375 L -2.34375 -1.609375 L -2.546875 -1.40625 L -2.71875 -1.515625 L -2.21875 -2.421875 L -2.046875 -2.34375 L -2.109375 -2.078125 L 0.328125 -1.734375 L 0.28125 -1.640625 L -1.28125 -3.421875 Z M 1.578125 -2.921875 L -1.4375 -3.296875 L -1.640625 -3.09375 L -1.796875 -3.203125 L -1.296875 -4.15625 L -1.109375 -4.078125 L -1.203125 -3.75 L 1.234375 -3.421875 L 1.1875 -3.3125 L -0.4375 -5.15625 L -0.6875 -4.859375 L -0.859375 -4.96875 L -0.390625 -5.8125 L -0.21875 -5.734375 L -0.265625 -5.46875 L 1.703125 -3.125 Z M 1.578125 -2.921875 "/></g></g></g><g fill="#033d68" fill-opacity="1"><g transform="translate(99.100759, 25.714681)"><g><path d="M 1.34375 -1.265625 C 1.125 -1.054688 0.878906 -0.910156 0.609375 -0.828125 C 0.347656 -0.753906 0.0859375 -0.753906 -0.171875 -0.828125 C -0.441406 -0.910156 -0.6875 -1.0625 -0.90625 -1.28125 C -1.113281 -1.5 -1.257812 -1.738281 -1.34375 -2 C -1.425781 -2.269531 -1.425781 -2.539062 -1.34375 -2.8125 C -1.269531 -3.09375 -1.128906 -3.335938 -0.921875 -3.546875 C -0.710938 -3.753906 -0.476562 -3.890625 -0.21875 -3.953125 C 0.0390625 -4.023438 0.300781 -4.023438 0.5625 -3.953125 C 0.820312 -3.878906 1.0625 -3.734375 1.28125 -3.515625 C 1.445312 -3.335938 1.570312 -3.144531 1.65625 -2.9375 C 1.738281 -2.738281 1.78125 -2.535156 1.78125 -2.328125 C 1.789062 -2.128906 1.753906 -1.9375 1.671875 -1.75 C 1.597656 -1.570312 1.488281 -1.410156 1.34375 -1.265625 Z M 1.171875 -1.5 C 1.304688 -1.644531 1.390625 -1.800781 1.421875 -1.96875 C 1.453125 -2.132812 1.425781 -2.304688 1.34375 -2.484375 C 1.269531 -2.671875 1.144531 -2.851562 0.96875 -3.03125 C 0.769531 -3.226562 0.5625 -3.375 0.34375 -3.46875 C 0.132812 -3.5625 -0.0625 -3.59375 -0.25 -3.5625 C -0.445312 -3.539062 -0.625 -3.457031 -0.78125 -3.3125 C -0.988281 -3.101562 -1.070312 -2.859375 -1.03125 -2.578125 C -0.988281 -2.296875 -0.832031 -2.015625 -0.5625 -1.734375 C -0.375 -1.546875 -0.175781 -1.40625 0.03125 -1.3125 C 0.25 -1.226562 0.457031 -1.203125 0.65625 -1.234375 C 0.851562 -1.265625 1.023438 -1.351562 1.171875 -1.5 Z M 1.171875 -1.5 "/></g></g></g><g fill="#033d68" fill-opacity="1"><g transform="translate(102.421294, 22.507873)"><g><path d="M -1.234375 -2.859375 L -0.4375 -3.3125 L 1.765625 -1.625 L 1.671875 -1.578125 L 1.40625 -4.3125 L 2.15625 -4.734375 L 2.265625 -4.5625 L 2 -4.34375 C 2.03125 -4.300781 2.078125 -4.21875 2.140625 -4.09375 C 2.203125 -3.976562 2.273438 -3.859375 2.359375 -3.734375 L 2.84375 -2.890625 C 2.9375 -2.734375 3.015625 -2.601562 3.078125 -2.5 C 3.140625 -2.40625 3.1875 -2.328125 3.21875 -2.265625 C 3.257812 -2.203125 3.289062 -2.15625 3.3125 -2.125 L 3.625 -2.21875 L 3.703125 -2.046875 L 2.71875 -1.5 L 2.609375 -1.671875 L 2.875 -1.890625 C 2.851562 -1.921875 2.828125 -1.960938 2.796875 -2.015625 C 2.773438 -2.066406 2.738281 -2.140625 2.6875 -2.234375 C 2.632812 -2.328125 2.566406 -2.445312 2.484375 -2.59375 L 1.5625 -4.234375 L 1.6875 -4.296875 L 1.984375 -1.078125 L 1.828125 -0.984375 L -0.75 -2.96875 L -0.625 -3.03125 L 0.234375 -1.453125 C 0.378906 -1.191406 0.484375 -1.003906 0.546875 -0.890625 C 0.617188 -0.773438 0.660156 -0.707031 0.671875 -0.6875 L 1.03125 -0.796875 L 1.109375 -0.609375 L 0.203125 -0.109375 L 0.09375 -0.28125 L 0.359375 -0.53125 C 0.347656 -0.550781 0.328125 -0.585938 0.296875 -0.640625 C 0.265625 -0.703125 0.222656 -0.78125 0.171875 -0.875 C 0.128906 -0.96875 0.0703125 -1.082031 0 -1.21875 L -0.5 -2.15625 C -0.570312 -2.289062 -0.640625 -2.414062 -0.703125 -2.53125 C -0.765625 -2.644531 -0.804688 -2.726562 -0.828125 -2.78125 L -1.15625 -2.6875 Z M -1.234375 -2.859375 "/></g></g></g><g fill="#033d68" fill-opacity="1"><g transform="translate(107.337277, 20.066899)"><g><path d="M 2.5 -0.578125 C 2.40625 -0.566406 2.316406 -0.550781 2.234375 -0.53125 C 2.160156 -0.519531 2.085938 -0.507812 2.015625 -0.5 L 0.265625 -0.0625 L 0.203125 -0.265625 L 0.5 -0.40625 C 0.488281 -0.414062 0.476562 -0.453125 0.46875 -0.515625 C 0.457031 -0.585938 0.4375 -0.675781 0.40625 -0.78125 C 0.382812 -0.882812 0.359375 -1.007812 0.328125 -1.15625 L 0.09375 -2.125 C 0.0507812 -2.28125 0.0195312 -2.410156 0 -2.515625 C -0.03125 -2.628906 -0.0546875 -2.71875 -0.078125 -2.78125 C -0.0976562 -2.84375 -0.109375 -2.878906 -0.109375 -2.890625 L -0.4375 -2.890625 L -0.46875 -3.078125 L 1.15625 -3.484375 C 1.207031 -3.492188 1.257812 -3.503906 1.3125 -3.515625 C 1.375 -3.535156 1.429688 -3.550781 1.484375 -3.5625 C 1.546875 -3.582031 1.601562 -3.601562 1.65625 -3.625 L 1.9375 -3 L 1.734375 -2.890625 L 1.453125 -3.28125 C 1.421875 -3.28125 1.382812 -3.273438 1.34375 -3.265625 C 1.300781 -3.265625 1.257812 -3.257812 1.21875 -3.25 L 0.640625 -3.109375 C 0.585938 -3.097656 0.535156 -3.082031 0.484375 -3.0625 C 0.441406 -3.039062 0.394531 -3.023438 0.34375 -3.015625 C 0.34375 -2.992188 0.347656 -2.953125 0.359375 -2.890625 C 0.378906 -2.828125 0.394531 -2.753906 0.40625 -2.671875 C 0.425781 -2.585938 0.445312 -2.503906 0.46875 -2.421875 L 0.8125 -1.046875 C 0.820312 -0.972656 0.835938 -0.898438 0.859375 -0.828125 C 0.890625 -0.753906 0.910156 -0.691406 0.921875 -0.640625 C 0.929688 -0.585938 0.941406 -0.546875 0.953125 -0.515625 C 1.003906 -0.523438 1.054688 -0.535156 1.109375 -0.546875 C 1.160156 -0.566406 1.21875 -0.582031 1.28125 -0.59375 L 1.78125 -0.71875 C 1.851562 -0.738281 1.914062 -0.753906 1.96875 -0.765625 C 2.019531 -0.773438 2.054688 -0.78125 2.078125 -0.78125 C 2.109375 -0.789062 2.128906 -0.804688 2.140625 -0.828125 L 2.28125 -1.390625 L 2.546875 -1.40625 Z M 1.671875 -1.515625 L 1.515625 -1.859375 C 1.503906 -1.859375 1.476562 -1.851562 1.4375 -1.84375 C 1.394531 -1.84375 1.34375 -1.832031 1.28125 -1.8125 L 0.90625 -1.734375 C 0.851562 -1.710938 0.800781 -1.691406 0.75 -1.671875 C 0.695312 -1.660156 0.640625 -1.648438 0.578125 -1.640625 L 0.515625 -1.921875 C 0.578125 -1.929688 0.632812 -1.941406 0.6875 -1.953125 C 0.738281 -1.960938 0.789062 -1.976562 0.84375 -2 L 1.21875 -2.078125 C 1.28125 -2.097656 1.332031 -2.113281 1.375 -2.125 C 1.414062 -2.132812 1.4375 -2.144531 1.4375 -2.15625 L 1.421875 -2.515625 L 1.65625 -2.578125 L 1.90625 -1.578125 Z M 1.671875 -1.515625 "/></g></g></g><g fill="#033d68" fill-opacity="1"><g transform="translate(111.222057, 19.203308)"><g><path d="M 2.671875 -0.75 L 2.671875 -1.9375 C 2.671875 -2.144531 2.671875 -2.3125 2.671875 -2.4375 C 2.671875 -2.5625 2.664062 -2.65625 2.65625 -2.71875 C 2.65625 -2.78125 2.648438 -2.816406 2.640625 -2.828125 L 2.28125 -2.90625 L 2.296875 -3.109375 L 3.3125 -3.109375 L 3.328125 -2.90625 L 3 -2.828125 C 3 -2.816406 2.992188 -2.78125 2.984375 -2.71875 C 2.984375 -2.65625 2.976562 -2.5625 2.96875 -2.4375 C 2.96875 -2.3125 2.96875 -2.144531 2.96875 -1.9375 L 2.96875 -0.6875 C 2.96875 -0.570312 2.96875 -0.457031 2.96875 -0.34375 C 2.96875 -0.226562 2.96875 -0.109375 2.96875 0.015625 L 2.734375 0.015625 L 0.78125 -2.59375 L 0.90625 -2.59375 L 0.90625 -1.1875 C 0.90625 -0.96875 0.90625 -0.796875 0.90625 -0.671875 C 0.914062 -0.546875 0.921875 -0.453125 0.921875 -0.390625 C 0.929688 -0.328125 0.9375 -0.289062 0.9375 -0.28125 L 1.296875 -0.203125 L 1.28125 0 L 0.265625 0 L 0.25 -0.203125 L 0.578125 -0.28125 C 0.578125 -0.289062 0.578125 -0.320312 0.578125 -0.375 C 0.585938 -0.4375 0.59375 -0.53125 0.59375 -0.65625 C 0.601562 -0.789062 0.609375 -0.96875 0.609375 -1.1875 L 0.609375 -2.09375 C 0.609375 -2.25 0.601562 -2.375 0.59375 -2.46875 C 0.59375 -2.570312 0.585938 -2.648438 0.578125 -2.703125 C 0.578125 -2.765625 0.578125 -2.804688 0.578125 -2.828125 L 0.25 -2.90625 L 0.265625 -3.109375 L 0.984375 -3.109375 L 2.765625 -0.75 Z M 2.671875 -0.75 "/></g></g></g><g fill="#033d68" fill-opacity="1"><g transform="translate(115.883888, 19.422069)"><g/></g></g><g fill="#033d68" fill-opacity="1"><g transform="translate(118.002213, 19.851043)"><g><path d="M 0.265625 0.09375 L 0.34375 -0.09375 L 0.640625 -0.0625 C 0.648438 -0.0703125 0.664062 -0.101562 0.6875 -0.15625 C 0.707031 -0.207031 0.734375 -0.28125 0.765625 -0.375 C 0.804688 -0.476562 0.859375 -0.609375 0.921875 -0.765625 L 1.3125 -1.796875 C 1.351562 -1.941406 1.390625 -2.054688 1.421875 -2.140625 C 1.460938 -2.234375 1.492188 -2.304688 1.515625 -2.359375 C 1.535156 -2.410156 1.539062 -2.441406 1.53125 -2.453125 L 1.25 -2.625 L 1.328125 -2.828125 L 2.890625 -2.25 C 2.941406 -2.226562 2.992188 -2.207031 3.046875 -2.1875 C 3.097656 -2.164062 3.15625 -2.148438 3.21875 -2.140625 C 3.28125 -2.128906 3.34375 -2.109375 3.40625 -2.078125 L 3.265625 -1.390625 L 3.03125 -1.421875 L 3 -1.921875 C 2.988281 -1.929688 2.96875 -1.941406 2.9375 -1.953125 C 2.90625 -1.972656 2.875 -1.988281 2.84375 -2 L 2.296875 -2.203125 C 2.242188 -2.222656 2.179688 -2.242188 2.109375 -2.265625 C 2.046875 -2.285156 2 -2.300781 1.96875 -2.3125 C 1.96875 -2.289062 1.957031 -2.257812 1.9375 -2.21875 C 1.914062 -2.1875 1.894531 -2.144531 1.875 -2.09375 C 1.851562 -2.039062 1.828125 -1.976562 1.796875 -1.90625 C 1.773438 -1.832031 1.75 -1.753906 1.71875 -1.671875 L 1.34375 -0.59375 C 1.28125 -0.4375 1.226562 -0.304688 1.1875 -0.203125 C 1.15625 -0.109375 1.132812 -0.0351562 1.125 0.015625 C 1.113281 0.0664062 1.101562 0.0976562 1.09375 0.109375 L 1.484375 0.3125 L 1.390625 0.515625 Z M 2.203125 -0.296875 L 2.28125 -0.671875 C 2.269531 -0.679688 2.238281 -0.695312 2.1875 -0.71875 C 2.144531 -0.738281 2.09375 -0.757812 2.03125 -0.78125 L 1.625 -0.9375 C 1.582031 -0.957031 1.539062 -0.96875 1.5 -0.96875 C 1.46875 -0.976562 1.421875 -0.992188 1.359375 -1.015625 L 1.453125 -1.28125 C 1.492188 -1.269531 1.535156 -1.253906 1.578125 -1.234375 C 1.628906 -1.210938 1.675781 -1.191406 1.71875 -1.171875 L 2.125 -1.015625 C 2.195312 -0.992188 2.253906 -0.976562 2.296875 -0.96875 C 2.335938 -0.957031 2.367188 -0.957031 2.390625 -0.96875 L 2.578125 -1.28125 L 2.796875 -1.203125 L 2.421875 -0.21875 Z M 2.203125 -0.296875 "/></g></g></g><g fill="#033d68" fill-opacity="1"><g transform="translate(121.47034, 21.207717)"><g><path d="M 1.5 1.0625 C 1.25 0.882812 1.0625 0.675781 0.9375 0.4375 C 0.820312 0.195312 0.769531 -0.0546875 0.78125 -0.328125 C 0.800781 -0.609375 0.898438 -0.878906 1.078125 -1.140625 C 1.242188 -1.390625 1.453125 -1.578125 1.703125 -1.703125 C 1.953125 -1.835938 2.21875 -1.894531 2.5 -1.875 C 2.78125 -1.851562 3.046875 -1.757812 3.296875 -1.59375 C 3.535156 -1.425781 3.710938 -1.222656 3.828125 -0.984375 C 3.953125 -0.742188 4.003906 -0.488281 3.984375 -0.21875 C 3.960938 0.0390625 3.863281 0.300781 3.6875 0.5625 C 3.550781 0.757812 3.390625 0.914062 3.203125 1.03125 C 3.023438 1.15625 2.835938 1.238281 2.640625 1.28125 C 2.453125 1.320312 2.257812 1.320312 2.0625 1.28125 C 1.863281 1.25 1.675781 1.175781 1.5 1.0625 Z M 1.703125 0.859375 C 1.859375 0.972656 2.023438 1.023438 2.203125 1.015625 C 2.378906 1.015625 2.546875 0.957031 2.703125 0.84375 C 2.867188 0.738281 3.023438 0.582031 3.171875 0.375 C 3.328125 0.132812 3.425781 -0.0976562 3.46875 -0.328125 C 3.507812 -0.566406 3.5 -0.773438 3.4375 -0.953125 C 3.382812 -1.140625 3.273438 -1.289062 3.109375 -1.40625 C 2.859375 -1.570312 2.597656 -1.609375 2.328125 -1.515625 C 2.054688 -1.429688 1.8125 -1.226562 1.59375 -0.90625 C 1.445312 -0.6875 1.347656 -0.460938 1.296875 -0.234375 C 1.253906 -0.00390625 1.265625 0.203125 1.328125 0.390625 C 1.398438 0.585938 1.523438 0.742188 1.703125 0.859375 Z M 1.703125 0.859375 "/></g></g></g><g fill="#033d68" fill-opacity="1"><g transform="translate(125.250119, 23.927667)"><g><path d="M 0.1875 0.203125 L 0.328125 0.0625 L 0.609375 0.25 C 0.628906 0.238281 0.65625 0.210938 0.6875 0.171875 C 0.726562 0.140625 0.773438 0.0976562 0.828125 0.046875 C 0.890625 -0.00390625 0.945312 -0.0546875 1 -0.109375 C 1.0625 -0.160156 1.117188 -0.210938 1.171875 -0.265625 L 1.921875 -0.9375 C 2.046875 -1.050781 2.144531 -1.144531 2.21875 -1.21875 C 2.300781 -1.289062 2.363281 -1.347656 2.40625 -1.390625 C 2.445312 -1.441406 2.472656 -1.472656 2.484375 -1.484375 L 2.3125 -1.765625 L 2.46875 -1.890625 L 3.25 -1.046875 C 3.476562 -0.796875 3.601562 -0.5625 3.625 -0.34375 C 3.65625 -0.125 3.578125 0.0664062 3.390625 0.234375 C 3.265625 0.347656 3.113281 0.414062 2.9375 0.4375 C 2.769531 0.457031 2.601562 0.425781 2.4375 0.34375 C 2.269531 0.269531 2.113281 0.148438 1.96875 -0.015625 L 1.734375 -0.25 L 1.90625 -0.40625 L 2.109375 -0.1875 C 2.253906 -0.03125 2.40625 0.0507812 2.5625 0.0625 C 2.726562 0.0820312 2.882812 0.03125 3.03125 -0.09375 C 3.164062 -0.21875 3.234375 -0.351562 3.234375 -0.5 C 3.234375 -0.644531 3.171875 -0.789062 3.046875 -0.9375 L 2.828125 -1.171875 C 2.816406 -1.160156 2.800781 -1.148438 2.78125 -1.140625 C 2.769531 -1.128906 2.75 -1.109375 2.71875 -1.078125 C 2.6875 -1.046875 2.632812 -0.992188 2.5625 -0.921875 C 2.488281 -0.859375 2.390625 -0.773438 2.265625 -0.671875 L 1.46875 0.0625 C 1.363281 0.15625 1.269531 0.238281 1.1875 0.3125 C 1.113281 0.382812 1.054688 0.441406 1.015625 0.484375 C 0.984375 0.535156 0.953125 0.570312 0.921875 0.59375 L 1.078125 0.875 L 0.921875 1 Z M 1.84375 2.078125 C 1.738281 1.960938 1.664062 1.84375 1.625 1.71875 C 1.582031 1.59375 1.570312 1.441406 1.59375 1.265625 C 1.625 1.097656 1.675781 0.882812 1.75 0.625 L 2 -0.078125 L 2.34375 0.15625 L 2.109375 1.140625 C 2.066406 1.316406 2.039062 1.460938 2.03125 1.578125 C 2.03125 1.703125 2.039062 1.804688 2.0625 1.890625 C 2.082031 1.972656 2.109375 2.050781 2.140625 2.125 L 2.015625 2.25 C 1.984375 2.226562 1.953125 2.203125 1.921875 2.171875 C 1.898438 2.140625 1.875 2.109375 1.84375 2.078125 Z M 1.84375 2.078125 "/></g></g></g><g fill="#033d68" fill-opacity="1"><g transform="translate(127.891764, 27.096216)"><g/></g></g><g fill="#033d68" fill-opacity="1"><g transform="translate(129.097386, 28.807417)"><g><path d="M 3.0625 1.671875 L 0.53125 1.546875 L 0.453125 1.328125 L 2.765625 -0.65625 L 2.75 -0.9375 L 2.953125 -0.984375 L 3.296875 -0.015625 L 3.09375 0.0625 L 2.96875 -0.15625 L 1.0625 1.421875 L 1.03125 1.3125 L 3.390625 1.375 Z M 1.078125 3.125 L 3.40625 1.15625 L 3.390625 0.875 L 3.59375 0.828125 L 3.953125 1.84375 L 3.75 1.921875 L 3.59375 1.640625 L 1.6875 3.21875 L 1.65625 3.109375 L 4.109375 3.140625 L 4.046875 2.765625 L 4.25 2.71875 L 4.578125 3.625 L 4.375 3.703125 L 4.234375 3.484375 L 1.15625 3.34375 Z M 1.078125 3.125 "/></g></g></g><g fill="#033d68" fill-opacity="1"><g transform="translate(130.842869, 34.473579)"><g><path d="M 0.03125 1.84375 C 0.0195312 1.539062 0.078125 1.265625 0.203125 1.015625 C 0.328125 0.773438 0.503906 0.582031 0.734375 0.4375 C 0.972656 0.289062 1.25 0.207031 1.5625 0.1875 C 1.863281 0.175781 2.140625 0.234375 2.390625 0.359375 C 2.640625 0.484375 2.835938 0.664062 2.984375 0.90625 C 3.140625 1.144531 3.222656 1.414062 3.234375 1.71875 C 3.253906 2.007812 3.203125 2.269531 3.078125 2.5 C 2.953125 2.738281 2.773438 2.925781 2.546875 3.0625 C 2.316406 3.207031 2.046875 3.285156 1.734375 3.296875 C 1.492188 3.304688 1.269531 3.273438 1.0625 3.203125 C 0.863281 3.128906 0.6875 3.023438 0.53125 2.890625 C 0.382812 2.753906 0.265625 2.597656 0.171875 2.421875 C 0.0859375 2.242188 0.0390625 2.050781 0.03125 1.84375 Z M 0.328125 1.875 C 0.328125 2.070312 0.378906 2.238281 0.484375 2.375 C 0.597656 2.507812 0.742188 2.609375 0.921875 2.671875 C 1.109375 2.742188 1.328125 2.773438 1.578125 2.765625 C 1.859375 2.753906 2.101562 2.695312 2.3125 2.59375 C 2.53125 2.5 2.695312 2.375 2.8125 2.21875 C 2.925781 2.0625 2.976562 1.878906 2.96875 1.671875 C 2.957031 1.367188 2.832031 1.132812 2.59375 0.96875 C 2.363281 0.8125 2.054688 0.738281 1.671875 0.75 C 1.398438 0.757812 1.160156 0.8125 0.953125 0.90625 C 0.742188 1.007812 0.582031 1.144531 0.46875 1.3125 C 0.363281 1.476562 0.316406 1.664062 0.328125 1.875 Z M 0.328125 1.875 "/></g></g></g><g fill="#033d68" fill-opacity="1"><g transform="translate(130.974919, 39.086494)"><g><path d="M 2.96875 1 L 2.75 1.90625 L 0.015625 2.40625 L 0.046875 2.3125 L 2.265625 3.9375 L 2.0625 4.78125 L 1.859375 4.75 L 1.875 4.40625 C 1.820312 4.394531 1.726562 4.375 1.59375 4.34375 C 1.46875 4.3125 1.320312 4.285156 1.15625 4.265625 L 0.21875 4.046875 C 0.0390625 4.003906 -0.101562 3.972656 -0.21875 3.953125 C -0.332031 3.929688 -0.421875 3.914062 -0.484375 3.90625 C -0.554688 3.894531 -0.609375 3.882812 -0.640625 3.875 L -0.78125 4.1875 L -0.984375 4.125 L -0.71875 3.03125 L -0.515625 3.0625 L -0.53125 3.390625 C -0.5 3.398438 -0.453125 3.410156 -0.390625 3.421875 C -0.335938 3.429688 -0.257812 3.445312 -0.15625 3.46875 C -0.0507812 3.5 0.0820312 3.535156 0.25 3.578125 L 2.078125 4 L 2.046875 4.140625 L -0.546875 2.203125 L -0.5 2.015625 L 2.703125 1.4375 L 2.671875 1.5625 L 0.921875 1.140625 C 0.640625 1.078125 0.429688 1.03125 0.296875 1 C 0.160156 0.976562 0.0820312 0.960938 0.0625 0.953125 L -0.09375 1.296875 L -0.296875 1.234375 L -0.046875 0.234375 L 0.15625 0.265625 L 0.140625 0.625 C 0.148438 0.632812 0.1875 0.644531 0.25 0.65625 C 0.320312 0.675781 0.410156 0.703125 0.515625 0.734375 C 0.628906 0.765625 0.757812 0.796875 0.90625 0.828125 L 1.921875 1.09375 C 2.078125 1.125 2.21875 1.15625 2.34375 1.1875 C 2.46875 1.21875 2.554688 1.238281 2.609375 1.25 L 2.765625 0.953125 Z M 2.96875 1 "/></g></g></g><g fill="#033d68" fill-opacity="1"><g transform="translate(129.47381, 44.36582)"><g><path d="M -1.265625 2.25 C -1.203125 2.164062 -1.148438 2.085938 -1.109375 2.015625 C -1.066406 1.953125 -1.03125 1.890625 -1 1.828125 L -0.125 0.234375 L 0.046875 0.3125 L -0.03125 0.65625 C -0.0195312 0.65625 0.0078125 0.671875 0.0625 0.703125 C 0.125 0.734375 0.203125 0.773438 0.296875 0.828125 C 0.398438 0.878906 0.515625 0.941406 0.640625 1.015625 L 1.515625 1.5 C 1.648438 1.570312 1.769531 1.632812 1.875 1.6875 C 1.976562 1.738281 2.054688 1.78125 2.109375 1.8125 C 2.160156 1.84375 2.191406 1.859375 2.203125 1.859375 L 2.421875 1.609375 L 2.609375 1.71875 L 1.796875 3.203125 C 1.773438 3.242188 1.75 3.289062 1.71875 3.34375 C 1.695312 3.394531 1.671875 3.445312 1.640625 3.5 C 1.617188 3.550781 1.59375 3.609375 1.5625 3.671875 L 0.90625 3.4375 L 0.96875 3.21875 L 1.453125 3.28125 C 1.472656 3.25 1.492188 3.21875 1.515625 3.1875 C 1.535156 3.15625 1.554688 3.125 1.578125 3.09375 L 1.859375 2.5625 C 1.890625 2.507812 1.914062 2.457031 1.9375 2.40625 C 1.957031 2.363281 1.976562 2.320312 2 2.28125 C 1.976562 2.269531 1.941406 2.25 1.890625 2.21875 C 1.835938 2.1875 1.769531 2.144531 1.6875 2.09375 C 1.613281 2.050781 1.539062 2.007812 1.46875 1.96875 L 0.21875 1.296875 C 0.15625 1.253906 0.0859375 1.21875 0.015625 1.1875 C -0.046875 1.164062 -0.0976562 1.140625 -0.140625 1.109375 C -0.191406 1.085938 -0.226562 1.070312 -0.25 1.0625 C -0.269531 1.101562 -0.296875 1.144531 -0.328125 1.1875 C -0.359375 1.226562 -0.390625 1.28125 -0.421875 1.34375 L -0.671875 1.796875 C -0.710938 1.859375 -0.738281 1.914062 -0.75 1.96875 C -0.769531 2.019531 -0.785156 2.054688 -0.796875 2.078125 C -0.816406 2.109375 -0.828125 2.128906 -0.828125 2.140625 L -0.515625 2.609375 L -0.671875 2.8125 Z M 0 2.265625 L 0.359375 2.375 C 0.367188 2.351562 0.382812 2.328125 0.40625 2.296875 C 0.4375 2.265625 0.46875 2.222656 0.5 2.171875 L 0.6875 1.828125 C 0.707031 1.785156 0.726562 1.738281 0.75 1.6875 C 0.769531 1.632812 0.796875 1.582031 0.828125 1.53125 L 1.078125 1.671875 C 1.046875 1.722656 1.015625 1.769531 0.984375 1.8125 C 0.960938 1.863281 0.941406 1.910156 0.921875 1.953125 L 0.734375 2.296875 C 0.703125 2.347656 0.675781 2.390625 0.65625 2.421875 C 0.632812 2.460938 0.617188 2.492188 0.609375 2.515625 L 0.90625 2.75 L 0.796875 2.953125 L -0.109375 2.46875 Z M 0 2.265625 "/></g></g></g><g fill="#033d68" fill-opacity="1"><g transform="translate(127.498832, 47.820536)"><g><path d="M -1.234375 2.484375 L -0.359375 3.28125 C -0.203125 3.425781 -0.0820312 3.539062 0 3.625 C 0.09375 3.707031 0.164062 3.765625 0.21875 3.796875 C 0.269531 3.835938 0.300781 3.859375 0.3125 3.859375 L 0.625 3.640625 L 0.75 3.796875 L 0.078125 4.546875 L -0.078125 4.421875 L 0.078125 4.125 C 0.0664062 4.113281 0.0390625 4.082031 0 4.03125 C -0.0390625 3.988281 -0.101562 3.925781 -0.1875 3.84375 C -0.28125 3.757812 -0.40625 3.644531 -0.5625 3.5 L -1.484375 2.671875 C -1.578125 2.585938 -1.664062 2.503906 -1.75 2.421875 C -1.832031 2.347656 -1.921875 2.269531 -2.015625 2.1875 L -1.859375 2.015625 L 1.390625 2.328125 L 1.3125 2.421875 L 0.265625 1.46875 C 0.109375 1.320312 -0.015625 1.207031 -0.109375 1.125 C -0.210938 1.050781 -0.285156 0.992188 -0.328125 0.953125 C -0.378906 0.910156 -0.410156 0.882812 -0.421875 0.875 L -0.71875 1.09375 L -0.859375 0.953125 L -0.171875 0.203125 L -0.015625 0.328125 L -0.1875 0.609375 C -0.175781 0.617188 -0.148438 0.644531 -0.109375 0.6875 C -0.078125 0.726562 -0.015625 0.796875 0.078125 0.890625 C 0.179688 0.984375 0.3125 1.101562 0.46875 1.25 L 1.140625 1.859375 C 1.253906 1.960938 1.347656 2.046875 1.421875 2.109375 C 1.492188 2.171875 1.554688 2.21875 1.609375 2.25 C 1.660156 2.28125 1.691406 2.304688 1.703125 2.328125 L 1.984375 2.140625 L 2.125 2.296875 L 1.640625 2.828125 L -1.296875 2.546875 Z M -1.234375 2.484375 "/></g></g></g><g fill="#033d68" fill-opacity="1"><g transform="translate(124.201652, 51.121908)"><g/></g></g></svg>